<svg xmlns="http://www.w3.org/2000/svg" viewBox="0 0 1024 1024" role="img" aria-labelledby="title desc">
  <title id="title">GitFolio app icon</title>
  <desc id="desc">GitFolio monogram over a warm dark contribution portfolio mark.</desc>
  <defs>
    <linearGradient id="paper" x1="168" y1="128" x2="856" y2="896" gradientUnits="userSpaceOnUse">
      <stop offset="0" stop-color="#2f2721"/>
      <stop offset="1" stop-color="#14110f"/>
    </linearGradient>
    <linearGradient id="amber" x1="220" y1="210" x2="812" y2="820" gradientUnits="userSpaceOnUse">
      <stop offset="0" stop-color="#e8bd62"/>
      <stop offset="1" stop-color="#d9a441"/>
    </linearGradient>
    <filter id="shadow" x="-20%" y="-20%" width="140%" height="140%">
      <feDropShadow dx="0" dy="32" stdDeviation="36" flood-color="#000000" flood-opacity="0.32"/>
    </filter>
  </defs>
  <rect width="1024" height="1024" rx="228" fill="#14110f"/>
  <rect x="112" y="96" width="800" height="832" rx="164" fill="url(#paper)" stroke="#3a302a" stroke-width="24" filter="url(#shadow)"/>
  <path d="M280 256h332l132 132v380c0 38-30 68-68 68H280c-38 0-68-30-68-68V324c0-38 30-68 68-68Z" fill="#1d1815" stroke="#d9a441" stroke-width="28"/>
  <path d="M612 256v116c0 18 14 32 32 32h100" fill="none" stroke="#d9a441" stroke-width="28" stroke-linejoin="round"/>
  <path d="M318 506h388" stroke="#3a302a" stroke-width="28" stroke-linecap="round"/>
  <path d="M318 608h320" stroke="#3a302a" stroke-width="28" stroke-linecap="round"/>
  <path d="M318 710h236" stroke="#3a302a" stroke-width="28" stroke-linecap="round"/>
  <circle cx="318" cy="506" r="18" fill="url(#amber)"/>
  <circle cx="318" cy="608" r="18" fill="url(#amber)"/>
  <circle cx="318" cy="710" r="18" fill="url(#amber)"/>
  <rect x="322" y="382" width="380" height="154" rx="48" fill="#14110f" stroke="#3a302a" stroke-width="16"/>
  <text x="512" y="489" text-anchor="middle" font-family="Avenir Next, Segoe UI, system-ui, sans-serif" font-size="94" font-weight="800" fill="#f3eadb">GF</text>
  <text x="512" y="838" text-anchor="middle" font-family="Avenir Next, Segoe UI, system-ui, sans-serif" font-size="34" font-weight="700" fill="#d9a441">GitFolio</text>
</svg>
